# Exported from Wings 3D 2.2.5
mtllib untitled.mtl
o octahedron8
#6 vertices, 8 faces
v 2.00000000 0.0000000e+0 0.0000000e+0
v -2.00000000 0.0000000e+0 0.0000000e+0
v 0.0000000e+0 3.70844444 0.0000000e+0
v 0.0000000e+0 -3.28000000 0.0000000e+0
v 0.0000000e+0 0.0000000e+0 2.00000000
v 0.0000000e+0 0.0000000e+0 -2.00000000
vn 0.99954322 -3.0221838e-2 -4.2354980e-17
vn -0.99954322 -3.0221838e-2 -4.2354980e-17
vn 0.0000000e+0 1.00000000 0.0000000e+0
vn 0.0000000e+0 -1.00000000 0.0000000e+0
vn 0.0000000e+0 -3.0221838e-2 0.99954322
vn 0.0000000e+0 -3.0221838e-2 -0.99954322
g octahedron8_default
usemtl default
s 1
f 1//1 5//5 4//4
f 1//1 6//6 3//3
f 2//2 5//5 3//3
f 2//2 6//6 4//4
f 3//3 5//5 1//1
f 3//3 6//6 2//2
f 4//4 5//5 2//2
f 4//4 6//6 1//1
